# xmcd
#
# Track frame offsets: 
#        150
#        13356
#        30345
#        43574
#        55932
#        71776
#        82326
#        97283
#        113406
#        128336
#        140003
#        153889
#        165428
#        178306
#        190947
#        200499
#
# Disc length: 2860 seconds
#
# Revision: 0
# Processed by: cddbd v1.5.2PL0 Copyright (c) Steve Scherf et al.
# Submitted via: ExactAudioCopy v0.95a5
#
DISCID=de0b2a10
DTITLE=Lynn Anderson - Country Legends Lynn Anderson
DYEAR=2007
DGENRE=Country
TTITLE0=rose garden
TTITLE1=blue bayou
TTITLE2=top of the world
TTITLE3=listen to a country song
TTITLE4=you needed me
TTITLE5=heartbreak hotel
TTITLE6=we've only just begun
TTITLE7=the devil went down to georgia
TTITLE8=could i have this dance
TTITLE9=rodeo cowboy
TTITLE10=two doors down
TTITLE11=that'll be the day
TTITLE12=danny's song
TTITLE13=i fall to pieces
TTITLE14=snowbird
TTITLE15=cry
EXTD=
EXTT0=
EXTT1=
EXTT2=
EXTT3=
EXTT4=
EXTT5=
EXTT6=
EXTT7=
EXTT8=
EXTT9=
EXTT10=
EXTT11=
EXTT12=
EXTT13=
EXTT14=
EXTT15=
PLAYORDER=
